<svg id="visual" viewBox="0 0 900 600" width="900" height="600" xmlns="http://www.w3.org/2000/svg" xmlns:xlink="http://www.w3.org/1999/xlink" version="1.1"><rect x="0" y="0" width="900" height="600" fill="#f2f1fa"></rect><g transform="translate(805.8657438375249 -99.12666414547658)"><path d="M106.5 -189.5C138.6 -145 165.7 -116.6 283.2 -68.1C400.8 -19.6 608.7 48.9 674 148.1C739.4 247.2 662.2 377 559.3 470.7C456.5 564.3 328 621.8 217.8 580.4C107.7 538.9 16 398.5 -102.2 358.9C-220.3 319.2 -364.8 380.3 -437.8 349.6C-510.8 318.9 -512.3 196.4 -508.9 85.6C-505.6 -25.3 -497.5 -124.4 -458.7 -209.6C-420 -294.8 -350.5 -366.1 -269 -388.1C-187.4 -410 -93.7 -382.5 -28.3 -338.5C37.2 -294.5 74.3 -234 106.5 -189.5" fill="#9289ef"></path></g></svg>